<svg xmlns="http://www.w3.org/2000/svg" xmlns:xlink="http://www.w3.org/1999/xlink" width="150" zoomAndPan="magnify" viewBox="0 0 112.5 112.499997" height="150" preserveAspectRatio="xMidYMid meet" version="1.0"><defs><g/><clipPath id="5655f6e872"><path d="M 34 60 L 109.558594 60 L 109.558594 107 L 34 107 Z M 34 60 " clip-rule="nonzero"/></clipPath><clipPath id="3ff52daecf"><path d="M 2.78125 0.5625 L 101 0.5625 L 101 111.074219 L 2.78125 111.074219 Z M 2.78125 0.5625 " clip-rule="nonzero"/></clipPath></defs><g fill="#000000" fill-opacity="1"><g transform="translate(13.296489, 63.741133)"><g><path d="M 2.796875 0 L 1.109375 0 L 1.109375 -8.53125 L 2.796875 -8.53125 Z M 2.796875 0 "/></g></g></g><g clip-path="url(#5655f6e872)"><path fill="#1bc4cb" d="M 88.949219 87.628906 C 92.277344 81.808594 94.179688 75.070312 94.179688 67.886719 C 94.179688 65.511719 93.972656 63.1875 93.574219 60.929688 C 91.960938 69.890625 87.199219 77.757812 80.46875 83.335938 C 76.574219 86.566406 70.777344 85.910156 67.730469 81.875 L 62.042969 74.339844 C 61.097656 73.085938 59.617188 72.347656 58.046875 72.347656 L 36.378906 72.347656 C 36.371094 72.347656 36.367188 72.347656 36.363281 72.347656 C 34.882812 72.359375 33.925781 73.917969 34.589844 75.242188 L 35.453125 76.960938 C 37.054688 80.152344 40.214844 82.277344 43.777344 82.558594 L 45.058594 82.660156 L 50.679688 83.101562 C 52.269531 83.226562 53.703125 84.105469 54.535156 85.46875 L 57.085938 89.636719 L 58.511719 91.96875 L 66.507812 105.046875 C 66.648438 105.277344 66.828125 105.484375 67.03125 105.652344 C 67.617188 106.144531 68.410156 106.347656 69.179688 106.15625 C 69.183594 106.15625 69.191406 106.152344 69.195312 106.152344 C 89.929688 101.035156 105.90625 83.835938 109.222656 62.449219 C 106.308594 73.421875 98.835938 82.535156 88.949219 87.628906 " fill-opacity="1" fill-rule="nonzero"/></g><g clip-path="url(#3ff52daecf)"><path fill="#ffffff" d="M 53.007812 86.402344 C 52.476562 85.535156 51.554688 84.96875 50.539062 84.886719 L 43.636719 84.34375 C 39.472656 84.015625 35.722656 81.496094 33.851562 77.765625 L 33.035156 76.136719 C 32.453125 74.980469 32.441406 73.597656 33.082031 72.472656 C 33.742188 71.3125 34.933594 70.597656 36.257812 70.558594 L 36.378906 70.554688 L 43.316406 70.554688 C 41.054688 66.984375 36.976562 64.976562 32.757812 65.371094 L 25.550781 66.042969 C 22.460938 66.332031 19.6875 64.203125 19.117188 61.15625 C 18.695312 58.894531 18.476562 56.566406 18.476562 54.183594 C 18.476562 42.105469 24.132812 31.347656 32.941406 24.417969 C 24.214844 30.164062 17.421875 38.609375 13.757812 48.566406 C 17.058594 24.578125 37.636719 6.101562 62.53125 6.101562 C 77.941406 6.101562 91.699219 13.179688 100.726562 24.265625 C 91.132812 10.054688 74.894531 0.699219 56.46875 0.652344 C 26.976562 0.574219 2.839844 24.605469 2.796875 54.101562 C 2.78125 64.484375 5.726562 74.175781 10.828125 82.390625 C 10.933594 82.5625 11.039062 82.734375 11.152344 82.910156 L 18.296875 81.695312 C 21.488281 81.15625 24.113281 84.242188 23.03125 87.292969 C 23 87.378906 22.980469 87.421875 22.980469 87.421875 C 27.582031 89.097656 26.804688 93.578125 26.804688 93.578125 C 30.867188 95.429688 29.195312 99.253906 29.195312 99.253906 C 30.632812 99.847656 31.132812 101.007812 31.265625 101.386719 C 31.332031 101.582031 31.402344 101.773438 31.480469 101.964844 L 34.257812 109.09375 C 34.734375 110.320312 36.203125 111.324219 37.519531 111.324219 C 39.179688 111.324219 40.328125 109.664062 39.742188 108.109375 L 38.441406 104.648438 L 36.707031 100.03125 C 36.585938 99.707031 36.808594 99.355469 37.160156 99.328125 C 37.386719 99.3125 37.597656 99.464844 37.6875 99.675781 L 39.964844 105.164062 L 41.652344 109.226562 C 42.234375 110.625 43.765625 111.425781 45.21875 111 C 46.960938 110.492188 47.828125 108.542969 47.042969 106.910156 C 47.042969 106.90625 47.039062 106.90625 47.039062 106.902344 L 42.867188 98.28125 C 42.6875 97.914062 42.933594 97.476562 43.339844 97.4375 C 43.578125 97.414062 43.804688 97.539062 43.917969 97.746094 L 48.996094 107.210938 L 49.625 108.386719 C 50.246094 109.542969 51.605469 110.144531 52.855469 109.734375 C 53.824219 109.414062 54.46875 108.601562 54.640625 107.683594 C 54.746094 107.125 54.671875 106.527344 54.386719 105.976562 L 50.414062 98.273438 C 50.238281 97.933594 50.367188 97.5 50.71875 97.355469 C 51.03125 97.222656 51.382812 97.359375 51.535156 97.644531 L 56.027344 106.132812 C 56.390625 106.816406 56.929688 107.347656 57.5625 107.699219 C 58.617188 108.28125 59.921875 108.367188 61.085938 107.816406 C 61.3125 107.710938 61.515625 107.582031 61.710938 107.441406 C 63.300781 106.285156 63.800781 104.058594 62.734375 102.3125 L 53.007812 86.402344 " fill-opacity="1" fill-rule="nonzero"/></g><path fill="#1bc4cb" d="M 14.175781 89.621094 L 19.796875 88.6875 C 21.480469 88.40625 22.621094 86.816406 22.34375 85.128906 C 22.0625 83.441406 20.46875 82.300781 18.78125 82.578125 L 13.160156 83.511719 C 11.476562 83.792969 10.335938 85.386719 10.613281 87.074219 C 10.894531 88.757812 12.488281 89.898438 14.175781 89.621094 " fill-opacity="1" fill-rule="nonzero"/><path fill="#1bc4cb" d="M 25.210938 91.222656 C 24.929688 89.535156 23.335938 88.394531 21.648438 88.675781 L 13.976562 90.140625 C 12.292969 90.421875 11.152344 92.015625 11.429688 93.699219 C 11.710938 95.386719 13.304688 96.527344 14.992188 96.25 L 22.664062 94.78125 C 24.351562 94.503906 25.492188 92.90625 25.210938 91.222656 " fill-opacity="1" fill-rule="nonzero"/><path fill="#1bc4cb" d="M 27.800781 97.59375 C 27.519531 95.90625 25.925781 94.765625 24.238281 95.046875 L 18.617188 95.980469 C 16.929688 96.257812 15.792969 97.851562 16.070312 99.539062 C 16.351562 101.226562 17.945312 102.367188 19.632812 102.085938 L 25.253906 101.15625 C 26.9375 100.875 28.078125 99.28125 27.800781 97.59375 " fill-opacity="1" fill-rule="nonzero"/><path fill="#1bc4cb" d="M 28.140625 101.023438 L 23.527344 101.757812 C 21.839844 102.035156 20.699219 103.628906 20.980469 105.316406 C 21.257812 107.003906 22.851562 108.144531 24.539062 107.863281 L 29.15625 107.128906 C 30.84375 106.847656 31.984375 105.253906 31.703125 103.570312 C 31.421875 101.882812 29.828125 100.742188 28.140625 101.023438 " fill-opacity="1" fill-rule="nonzero"/></svg>